<svg width="45" height="45" viewBox="0 0 45 45" fill="none" xmlns="http://www.w3.org/2000/svg">
<path d="M22.5 25.0875L11.6939 35.8935C11.2896 36.2978 10.775 36.5 10.1502 36.5C9.52535 36.5 9.01077 36.2978 8.60646 35.8935C8.20215 35.4892 8 34.9746 8 34.3498C8 33.725 8.20215 33.2104 8.60646 32.8061L19.4125 22L8.60646 11.1939C8.20215 10.7896 8 10.275 8 9.65019C8 9.02535 8.20215 8.51077 8.60646 8.10646C9.01077 7.70215 9.52535 7.5 10.1502 7.5C10.775 7.5 11.2896 7.70215 11.6939 8.10646L22.5 18.9125L33.3061 8.10646C33.7104 7.70215 34.225 7.5 34.8498 7.5C35.4746 7.5 35.9892 7.70215 36.3935 8.10646C36.7978 8.51077 37 9.02535 37 9.65019C37 10.275 36.7978 10.7896 36.3935 11.1939L25.5875 22L36.3935 32.8061C36.7978 33.2104 37 33.725 37 34.3498C37 34.9746 36.7978 35.4892 36.3935 35.8935C35.9892 36.2978 35.4746 36.5 34.8498 36.5C34.225 36.5 33.7104 36.2978 33.3061 35.8935L22.5 25.0875Z" fill="#999999" fill-opacity="0.6"/>
</svg>
