<svg width="25" height="25" viewBox="0 0 25 25" fill="none" xmlns="http://www.w3.org/2000/svg" aria-hidden="true">
  <path d="M2.5 12.5C2.5 18.0234 6.97656 22.5 12.5 22.5C18.0234 22.5 22.5 18.0234 22.5 12.5C22.5 6.97656 18.0234 2.5 12.5 2.5C6.97656 2.5 2.5 6.97656 2.5 12.5ZM11.9141 17.2266C11.5469 17.5938 10.9531 17.5938 10.5898 17.2266C10.2266 16.8594 10.2227 16.2656 10.5898 15.9023L13.9883 12.5039L10.5898 9.10547C10.2227 8.73828 10.2227 8.14453 10.5898 7.78125C10.957 7.41797 11.5508 7.41406 11.9141 7.78125L15.9766 11.8359C16.3438 12.2031 16.3438 12.7969 15.9766 13.1602L11.9141 17.2266Z" fill="currentColor"/>
</svg>
