<?xml version="1.0" encoding="UTF-8"?>
<svg id="_レイヤー_1" data-name="レイヤー_1" xmlns="http://www.w3.org/2000/svg" version="1.1" viewBox="0 0 512 512">
  <!-- Generator: Adobe Illustrator 29.8.6, SVG Export Plug-In . SVG Version: 2.1.1 Build 1)  -->
  <defs>
    <style>
      .st0 {
        fill: #294b7a;
      }

      .st1 {
        fill: #fff;
      }
    </style>
  </defs>
  <rect class="st0" width="512" height="512"/>
  <path class="st1" d="M237.7,176.9c-.8,0-1.3-.6-1-1.4l36.7-126c.2-.8-.2-1.4-1-1.4h-63.8c-.8,0-1.6.6-1.9,1.4l-36.9,126c-.2.8-1.1,1.4-1.9,1.4h-95.3c-.8,0-1.5.7-1.6,1.5l-6.9,52.5c-.1.8.5,1.5,1.3,1.5h86.3c.8,0,1.3.6,1,1.4l-67.2,229.2c-.2.8.2,1.1.9.8l76.1-36.9c.7-.4,1.5-1.3,1.7-2.1l55.6-191.1c.2-.8,1.1-1.4,1.9-1.4h130.6c.8,0,1.4.7,1.3,1.5l-28.2,216c-.1.8.5,1.5,1.3,1.5h60.9c.8,0,1.5-.7,1.6-1.5l32.8-251c.1-.8.7-1.9,1.4-2.4l24.3-18.7c.6-.5.5-.9-.3-.9h-209.6Z"/>
</svg>