<svg width="32" height="32" viewBox="0 0 32 32" fill="none" xmlns="http://www.w3.org/2000/svg">
<path d="M15.8272 31.1943C24.3143 31.1943 31.1944 24.3142 31.1944 15.8272C31.1944 7.34008 24.3143 0.459961 15.8272 0.459961C7.34012 0.459961 0.459999 7.34008 0.459999 15.8272C0.459999 24.3142 7.34012 31.1943 15.8272 31.1943Z" fill="#D27539"/>
<path d="M24.1568 21.5782H7.49578C7.34643 21.5782 7.22586 21.4576 7.22586 21.3082V10.3425C7.22586 10.1931 7.34643 10.0726 7.49578 10.0726H24.1568C24.3062 10.0726 24.4267 10.1931 24.4267 10.3425V21.3082C24.4267 21.4576 24.3062 21.5782 24.1568 21.5782ZM7.7657 21.0401H23.8869V10.6141H7.7657V21.0401Z" fill="white"/>
<path d="M15.8272 18.2042C15.7624 18.2042 15.6976 18.1808 15.6455 18.134L7.3141 10.5422C7.23132 10.4666 7.20431 10.3497 7.2439 10.2453C7.28348 10.1409 7.38421 10.0726 7.49578 10.0726H24.1568C24.2684 10.0726 24.3674 10.1409 24.4088 10.2453C24.4484 10.3497 24.4213 10.4666 24.3386 10.5422L16.0072 18.134C15.955 18.1808 15.8902 18.2042 15.8254 18.2042H15.8272ZM8.1922 10.6141L15.8254 17.5708L23.4587 10.6141H8.1904H8.1922Z" fill="white"/>
<path d="M24.1568 21.5782H7.49578C7.37882 21.5782 7.27624 21.5043 7.24025 21.3927C7.20426 21.283 7.24026 21.1606 7.33383 21.0922L13.9342 16.142C14.0529 16.0521 14.2221 16.0772 14.3121 16.196C14.402 16.3147 14.3768 16.4839 14.2581 16.5739L8.30375 21.0383H23.3452L17.4665 16.6297C17.3477 16.5397 17.3225 16.3705 17.4125 16.2518C17.5025 16.133 17.6716 16.1078 17.7904 16.1978L24.317 21.0922C24.4105 21.1624 24.4483 21.283 24.4105 21.3927C24.3745 21.5025 24.2701 21.5781 24.155 21.5781L24.1568 21.5782Z" fill="white"/>
<path d="M7.7657 21.0401H7.3057C7.3057 21.2941 7.51164 21.5001 7.7657 21.5001V21.0401ZM23.8869 21.0401V21.5001C24.1409 21.5001 24.3469 21.2941 24.3469 21.0401H23.8869ZM23.8869 10.6141H24.3469C24.3469 10.3601 24.1409 10.1541 23.8869 10.1541V10.6141ZM7.7657 10.6141V10.1541C7.51164 10.1541 7.3057 10.3601 7.3057 10.6141H7.7657ZM15.8272 18.6642C16.0813 18.6642 16.2872 18.4583 16.2872 18.2042C16.2872 17.9502 16.0813 17.7442 15.8272 17.7442V18.2042V18.6642ZM15.6455 18.134L15.3356 18.474L15.3384 18.4765L15.6455 18.134ZM7.3141 10.5422L7.00393 10.8819L7.00427 10.8822L7.3141 10.5422ZM24.4088 10.2453L24.8389 10.0821L24.8364 10.0757L24.4088 10.2453ZM24.3386 10.5422L24.6484 10.8822L24.6487 10.8819L24.3386 10.5422ZM16.0072 18.134L16.3142 18.4765L16.317 18.474L16.0072 18.134ZM15.8254 17.7442C15.5714 17.7442 15.3654 17.9502 15.3654 18.2042C15.3654 18.4583 15.5714 18.6642 15.8254 18.6642V18.2042V17.7442ZM8.1922 10.6141L8.50206 10.2742C8.41733 10.1969 8.30683 10.1541 8.1922 10.1541V10.6141ZM15.8254 17.5708L15.5156 17.9108C15.6911 18.0708 15.9597 18.0708 16.1353 17.9108L15.8254 17.5708ZM23.4587 10.6141L23.7685 10.9541C23.9089 10.8262 23.9562 10.6251 23.8876 10.448C23.819 10.2709 23.6486 10.1541 23.4587 10.1541V10.6141ZM8.1904 10.1541C7.93635 10.1541 7.7304 10.3601 7.7304 10.6141C7.7304 10.8682 7.93635 11.0741 8.1904 11.0741V10.6141V10.1541ZM7.24025 21.3927L7.67804 21.2515L7.67736 21.2494L7.24025 21.3927ZM7.33383 21.0922L7.60526 21.4637L7.60983 21.4602L7.33383 21.0922ZM13.9342 16.142L14.2102 16.51L14.2119 16.5087L13.9342 16.142ZM14.2581 16.5739L14.534 16.9419L14.5358 16.9405L14.2581 16.5739ZM8.30375 21.0383L8.0278 20.6703C7.86938 20.789 7.80474 20.9959 7.86734 21.1837C7.92995 21.3716 8.10574 21.4983 8.30375 21.4983V21.0383ZM23.3452 21.0383V21.4983C23.5432 21.4983 23.719 21.3716 23.7816 21.1837C23.8442 20.9959 23.7796 20.7891 23.6212 20.6703L23.3452 21.0383ZM17.4665 16.6297L17.1887 16.9963L17.1905 16.9977L17.4665 16.6297ZM17.7904 16.1978L17.5126 16.5645L17.5144 16.5658L17.7904 16.1978ZM24.317 21.0922L24.593 20.7242L24.5929 20.7242L24.317 21.0922ZM24.4105 21.3927L23.9755 21.243L23.9734 21.2494L24.4105 21.3927ZM24.155 21.5781V21.1181C23.9024 21.1181 23.6971 21.3218 23.695 21.5743C23.6929 21.8269 23.8948 22.0339 24.1474 22.0381L24.155 21.5781ZM31.1944 15.8272H30.7344C30.7344 24.0602 24.0602 30.7344 15.8272 30.7344V31.1943V31.6544C24.5683 31.6544 31.6544 24.5683 31.6544 15.8272H31.1944ZM15.8272 31.1943V30.7344C7.59417 30.7344 0.919999 24.0602 0.919999 15.8272H0.459999H-9.23872e-07C-9.23872e-07 24.5683 7.08606 31.6544 15.8272 31.6544V31.1943ZM0.459999 15.8272H0.919999C0.919999 7.59413 7.59417 0.919961 15.8272 0.919961V0.459961V-3.90708e-05C7.08606 -3.90708e-05 -9.23872e-07 7.08603 -9.23872e-07 15.8272H0.459999ZM15.8272 0.459961V0.919961C24.0602 0.919961 30.7344 7.59413 30.7344 15.8272H31.1944H31.6544C31.6544 7.08603 24.5683 -3.90708e-05 15.8272 -3.90708e-05V0.459961ZM24.1568 21.5782V21.1182H7.49578V21.5782V22.0382H24.1568V21.5782ZM7.49578 21.5782V21.1182C7.60048 21.1182 7.68586 21.2035 7.68586 21.3082H7.22586H6.76586C6.76586 21.7116 7.09238 22.0382 7.49578 22.0382V21.5782ZM7.22586 21.3082H7.68586V10.3425H7.22586H6.76586V21.3082H7.22586ZM7.22586 10.3425H7.68586C7.68586 10.4472 7.60048 10.5326 7.49578 10.5326V10.0726V9.61255C7.09238 9.61255 6.76586 9.93906 6.76586 10.3425H7.22586ZM7.49578 10.0726V10.5326H24.1568V10.0726V9.61255H7.49578V10.0726ZM24.1568 10.0726V10.5326C24.0521 10.5326 23.9667 10.4472 23.9667 10.3425H24.4267H24.8867C24.8867 9.93906 24.5602 9.61255 24.1568 9.61255V10.0726ZM24.4267 10.3425H23.9667V21.3082H24.4267H24.8867V10.3425H24.4267ZM24.4267 21.3082H23.9667C23.9667 21.2035 24.0521 21.1182 24.1568 21.1182V21.5782V22.0382C24.5602 22.0382 24.8867 21.7116 24.8867 21.3082H24.4267ZM7.7657 21.0401V21.5001H23.8869V21.0401V20.5801H7.7657V21.0401ZM23.8869 21.0401H24.3469V10.6141H23.8869H23.4269V21.0401H23.8869ZM23.8869 10.6141V10.1541H7.7657V10.6141V11.0741H23.8869V10.6141ZM7.7657 10.6141H7.3057V21.0401H7.7657H8.2257V10.6141H7.7657ZM15.8272 18.2042V17.7442C15.8741 17.7442 15.9191 17.7615 15.9525 17.7915L15.6455 18.134L15.3384 18.4765C15.4762 18.6 15.6508 18.6642 15.8272 18.6642V18.2042ZM15.6455 18.134L15.9553 17.794L7.62393 10.2022L7.3141 10.5422L7.00427 10.8822L15.3356 18.474L15.6455 18.134ZM7.3141 10.5422L7.62426 10.2025C7.68263 10.2558 7.7004 10.3388 7.67399 10.4084L7.2439 10.2453L6.8138 10.0822C6.70821 10.3605 6.78001 10.6774 7.00393 10.8819L7.3141 10.5422ZM7.2439 10.2453L7.67399 10.4084C7.64465 10.4858 7.57206 10.5326 7.49578 10.5326V10.0726V9.61255C7.19637 9.61255 6.92232 9.79606 6.8138 10.0822L7.2439 10.2453ZM24.1568 10.0726V10.5326C24.0759 10.5326 24.0078 10.4821 23.9812 10.4149L24.4088 10.2453L24.8364 10.0757C24.7269 9.7997 24.4609 9.61255 24.1568 9.61255V10.0726ZM24.4088 10.2453L23.9787 10.4084C23.9523 10.3388 23.97 10.2558 24.0284 10.2025L24.3386 10.5422L24.6487 10.8819C24.8727 10.6774 24.9445 10.3605 24.8389 10.0822L24.4088 10.2453ZM24.3386 10.5422L24.0287 10.2022L15.6973 17.794L16.0072 18.134L16.317 18.474L24.6484 10.8822L24.3386 10.5422ZM16.0072 18.134L15.7001 17.7915C15.7335 17.7615 15.7785 17.7442 15.8254 17.7442V18.2042V18.6642C16.0019 18.6642 16.1764 18.6 16.3142 18.4765L16.0072 18.134ZM15.8254 18.2042V18.6642H15.8272V18.2042V17.7442H15.8254V18.2042ZM8.1922 10.6141L7.88235 10.9541L15.5156 17.9108L15.8254 17.5708L16.1353 17.2308L8.50206 10.2742L8.1922 10.6141ZM15.8254 17.5708L16.1353 17.9108L23.7685 10.9541L23.4587 10.6141L23.1488 10.2742L15.5156 17.2308L15.8254 17.5708ZM23.4587 10.6141V10.1541H8.1904V10.6141V11.0741H23.4587V10.6141ZM8.1904 10.6141V11.0741H8.1922V10.6141V10.1541H8.1904V10.6141ZM7.49578 21.5782V21.1182C7.5764 21.1182 7.65211 21.1711 7.67804 21.2515L7.24025 21.3927L6.80247 21.534C6.90037 21.8375 7.18123 22.0382 7.49578 22.0382V21.5782ZM7.24025 21.3927L7.67736 21.2494C7.70009 21.3187 7.6811 21.4082 7.60523 21.4636L7.33383 21.0922L7.06242 20.7208C6.79941 20.913 6.70844 21.2472 6.80315 21.536L7.24025 21.3927ZM7.33383 21.0922L7.60983 21.4602L14.2102 16.51L13.9342 16.142L13.6582 15.774L7.05783 20.7242L7.33383 21.0922ZM13.9342 16.142L14.2119 16.5087C14.1237 16.5755 14.0054 16.553 13.9454 16.4737L14.3121 16.196L14.6787 15.9182C14.4388 15.6015 13.9822 15.5286 13.6564 15.7754L13.9342 16.142ZM14.3121 16.196L13.9454 16.4737C13.8785 16.3854 13.9012 16.2671 13.9803 16.2072L14.2581 16.5739L14.5358 16.9405C14.8525 16.7007 14.9256 16.2441 14.6787 15.9182L14.3121 16.196ZM14.2581 16.5739L13.9821 16.2058L8.0278 20.6703L8.30375 21.0383L8.5797 21.4063L14.534 16.9419L14.2581 16.5739ZM8.30375 21.0383V21.4983H23.3452V21.0383V20.5783H8.30375V21.0383ZM23.3452 21.0383L23.6212 20.6703L17.7425 16.2617L17.4665 16.6297L17.1905 16.9977L23.0693 21.4063L23.3452 21.0383ZM17.4665 16.6297L17.7443 16.263C17.8233 16.3229 17.8461 16.4412 17.7792 16.5295L17.4125 16.2518L17.0458 15.974C16.7989 16.2999 16.8721 16.7565 17.1887 16.9963L17.4665 16.6297ZM17.4125 16.2518L17.7792 16.5295C17.7191 16.6087 17.6009 16.6313 17.5126 16.5645L17.7904 16.1978L18.0682 15.8312C17.7424 15.5844 17.2858 15.6573 17.0458 15.974L17.4125 16.2518ZM17.7904 16.1978L17.5144 16.5658L24.041 21.4603L24.317 21.0922L24.5929 20.7242L18.0664 15.8298L17.7904 16.1978ZM24.317 21.0922L24.041 21.4602C23.9775 21.4126 23.9473 21.3251 23.9755 21.243L24.4105 21.3927L24.8454 21.5425C24.9493 21.2408 24.8436 20.9122 24.593 20.7242L24.317 21.0922ZM24.4105 21.3927L23.9734 21.2494C23.9992 21.1706 24.0709 21.1181 24.155 21.1181V21.5781V22.0381C24.4694 22.0381 24.7498 21.8344 24.8476 21.536L24.4105 21.3927ZM24.155 21.5781L24.1474 22.0381L24.1492 22.0381L24.1568 21.5782L24.1644 21.1182L24.1626 21.1182L24.155 21.5781Z" fill="white"/>
</svg>
