<?xml version="1.0" encoding="UTF-8"?>
<svg id="_レイヤー_1" data-name="レイヤー_1" xmlns="http://www.w3.org/2000/svg" version="1.1" viewBox="0 0 40 40">
  <!-- Generator: Adobe Illustrator 30.5.1, SVG Export Plug-In . SVG Version: 2.1.4 Build 3)  -->
  <defs>
    <style>
      .st0 {
        fill: #2b5696;
      }
    </style>
  </defs>
  <path class="st0" d="M0,20c0,11,9,20,20,20s20-9,20-20S31,0,20,0,0,9,0,20ZM18.8,29.5c-.7.7-1.9.7-2.6,0-.7-.7-.7-1.9,0-2.6l6.8-6.8-6.8-6.8c-.7-.7-.7-1.9,0-2.6.7-.7,1.9-.7,2.6,0l8.1,8.1c.7.7.7,1.9,0,2.6l-8.1,8.1Z"/>
</svg>