<?xml version="1.0" encoding="UTF-8"?>
<svg id="_レイヤー_1" data-name="レイヤー_1" xmlns="http://www.w3.org/2000/svg" version="1.1" viewBox="0 0 20 17">
  <!-- Generator: Adobe Illustrator 30.6.0, SVG Export Plug-In . SVG Version: 2.1.4 Build 109)  -->
  <defs>
    <style>
      .st0 {
        fill: #444;
      }
    </style>
  </defs>
  <path class="st0" d="M15.7,10.3v3.5c0,.9-.3,1.6-.9,2.3-.6.6-1.4.9-2.3.9H3.2c-.9,0-1.6-.3-2.3-.9-.6-.6-.9-1.4-.9-2.3V4.6c0-.9.3-1.6.9-2.3.6-.6,1.4-.9,2.3-.9h7.9c.1,0,.2,0,.3,0,0,0,.1.2.1.3v.7c0,.1,0,.2-.1.3,0,0-.2,0-.3,0H3.2c-.5,0-.9.2-1.3.5-.3.3-.5.8-.5,1.3v9.2c0,.5.2.9.5,1.3.3.3.8.5,1.3.5h9.3c.5,0,.9-.2,1.3-.5.3-.3.5-.8.5-1.3v-3.5c0-.1,0-.2.1-.3,0,0,.2,0,.3,0h.7c.1,0,.2,0,.3,0,0,0,.1.2.1.3ZM20,.7v5.7c0,.2,0,.4-.2.5-.1.1-.3.2-.5.2s-.4,0-.5-.2l-2-1.9-7.3,7.2c0,0-.2.1-.3.1s-.2,0-.3-.1l-1.3-1.3c0,0-.1-.2-.1-.3s0-.2.1-.3l7.3-7.2-2-1.9c-.1-.1-.2-.3-.2-.5s0-.4.2-.5c.1-.1.3-.2.5-.2h5.7c.2,0,.4,0,.5.2.1.1.2.3.2.5Z"/>
</svg>