<svg width="20" height="17" viewBox="0 0 20 17" fill="none" xmlns="http://www.w3.org/2000/svg">
<path d="M15.7143 10.2708V13.8125C15.7143 14.6905 15.3999 15.4413 14.7712 16.0648C14.1425 16.6883 13.3854 17 12.5 17H3.21429C2.32887 17 1.5718 16.6883 0.94308 16.0648C0.31436 15.4413 0 14.6905 0 13.8125V4.60417C0 3.72613 0.31436 2.97537 0.94308 2.35189C1.5718 1.72841 2.32887 1.41667 3.21429 1.41667H11.0714C11.1756 1.41667 11.2612 1.44987 11.3281 1.51628C11.3951 1.58268 11.4286 1.66753 11.4286 1.77083V2.47917C11.4286 2.58247 11.3951 2.66732 11.3281 2.73372C11.2612 2.80013 11.1756 2.83333 11.0714 2.83333H3.21429C2.72321 2.83333 2.30283 3.00673 1.95312 3.35352C1.60342 3.7003 1.42857 4.11719 1.42857 4.60417V13.8125C1.42857 14.2995 1.60342 14.7164 1.95312 15.0632C2.30283 15.4099 2.72321 15.5833 3.21429 15.5833H12.5C12.9911 15.5833 13.4115 15.4099 13.7612 15.0632C14.1109 14.7164 14.2857 14.2995 14.2857 13.8125V10.2708C14.2857 10.1675 14.3192 10.0827 14.3862 10.0163C14.4531 9.94987 14.5387 9.91667 14.6429 9.91667H15.3571C15.4613 9.91667 15.5469 9.94987 15.6138 10.0163C15.6808 10.0827 15.7143 10.1675 15.7143 10.2708ZM20 0.708333V6.375C20 6.56684 19.9293 6.73286 19.7879 6.87305C19.6466 7.01324 19.4792 7.08333 19.2857 7.08333C19.0923 7.08333 18.9249 7.01324 18.7835 6.87305L16.8192 4.92513L9.54241 12.1413C9.46801 12.2151 9.38244 12.252 9.28571 12.252C9.18899 12.252 9.10342 12.2151 9.02902 12.1413L7.7567 10.8796C7.68229 10.8058 7.64509 10.7209 7.64509 10.625C7.64509 10.5291 7.68229 10.4442 7.7567 10.3704L15.0335 3.1543L13.0692 1.20638C12.9278 1.06619 12.8571 0.900174 12.8571 0.708333C12.8571 0.516493 12.9278 0.350477 13.0692 0.210286C13.2106 0.0700955 13.378 0 13.5714 0H19.2857C19.4792 0 19.6466 0.0700955 19.7879 0.210286C19.9293 0.350477 20 0.516493 20 0.708333Z" fill="#CCCCCC"/>
</svg>
