<?xml version="1.0" encoding="UTF-8"?>
<svg id="_レイヤー_1" data-name="レイヤー_1" xmlns="http://www.w3.org/2000/svg" version="1.1" viewBox="0 0 40 40">
  <!-- Generator: Adobe Illustrator 30.5.1, SVG Export Plug-In . SVG Version: 2.1.4 Build 3)  -->
  <defs>
    <style>
      .st0 {
        fill: #fff;
      }

      .st1 {
        fill: #d27539;
      }
    </style>
  </defs>
  <path class="st1" d="M20,39.6c10.8,0,19.6-8.8,19.6-19.6S30.8.4,20,.4.4,9.2.4,20s8.8,19.6,19.6,19.6Z"/>
  <path class="st0" d="M24.1,31c-.3,0-.7,0-1.3-.1-.6,0-1.3-.3-2.2-.7-.8-.4-1.8-.9-2.9-1.6-1.1-.7-2.2-1.7-3.4-2.9-.9-.9-1.7-1.8-2.4-2.7-.6-.9-1.1-1.7-1.5-2.4-.4-.7-.7-1.4-.9-2-.2-.6-.3-1.1-.4-1.6,0-.5-.1-.8,0-1.1,0-.2,0-.4,0-.4s0,0,0,0c0-.2.1-.4.2-.7.1-.2.3-.4.4-.6l2.7-2.7c.3-.3.6-.4.9-.4s.5,0,.7.2c.2.1.3.3.4.5,0,0,0,0,0,0l2.2,4.1c.2.3.2.6.1.9,0,.3-.2.6-.4.8l-1,1s0,0,0,0c0,0,0,0,0,0,0,.2.2.5.3.8.2.3.4.7.7,1.1.3.4.8,1,1.4,1.6.6.6,1.1,1.1,1.6,1.4.5.3.8.6,1.1.7.4.2.5.2.6.3h.2s0,0,0,0c0,0,0,0,0,0l1.1-1.2s0,0,0,0c.3-.3.7-.4,1.1-.4s.5,0,.7.1c0,0,0,0,0,0l3.9,2.3c.4.2.6.5.7.9,0,0,0,0,0,0,0,.4,0,.8-.4,1.1l-2.7,2.7c-.1.2-.3.3-.6.4-.2.1-.5.2-.7.2,0,0,0,0,0,0s0,0,0,0c0,0-.2,0-.3,0h0ZM9.8,15.6c0,0,0,.2,0,.4,0,.2,0,.5,0,.9,0,.4.2.9.4,1.5.2.6.5,1.2.8,1.9.4.7.9,1.5,1.5,2.3.6.8,1.4,1.7,2.3,2.6,1.2,1.2,2.3,2.1,3.3,2.8,1,.7,2,1.2,2.8,1.5.8.3,1.5.5,2,.6.5,0,1,.1,1.2.1s.2,0,.2,0c0,0,0,0,.1,0,.1,0,.3,0,.5-.1.2,0,.3-.2.4-.3l2.7-2.7c.1-.1.2-.3.2-.5,0-.2-.2-.3-.3-.4l-3.8-2.3s0,0,0,0c0,0-.2,0-.4,0s-.4,0-.6.2l-1.1,1.2c0,0-.2.1-.3.2-.1,0-.2,0-.3,0h-.3c-.2,0-.5-.2-.8-.4-.3-.2-.7-.4-1.2-.8-.5-.4-1-.9-1.7-1.5-.6-.6-1.1-1.2-1.5-1.6-.3-.5-.6-.9-.8-1.2-.2-.4-.3-.7-.4-1.1,0,0,0,0,0,0,0,0,0-.2,0-.3,0-.1,0-.2.2-.3l1-1c.1-.1.2-.3.2-.5,0-.2,0-.3,0-.5l-2.2-4.1c0-.1-.2-.2-.3-.3,0,0-.2,0-.3,0-.2,0-.3,0-.4.2l-2.7,2.7c-.1.1-.2.2-.3.4,0,.2-.1.3-.1.5h0Z"/>
  <path class="st0" d="M23.9,19.5c-.2,0-.3-.2-.3-.3,0-1.4-1.2-2.6-2.6-2.6s-.3-.2-.3-.3.2-.3.3-.3c1.8,0,3.3,1.5,3.3,3.3s-.2.3-.3.3Z"/>
  <path class="st0" d="M27,19.5c-.2,0-.3-.2-.3-.3,0-3.2-2.6-5.8-5.8-5.8s-.3-.2-.3-.3.2-.3.3-.3c3.6,0,6.4,2.9,6.4,6.4s-.2.3-.3.3h0Z"/>
  <path class="st0" d="M30.1,19.5c-.2,0-.3-.2-.3-.3,0-4.9-4-8.8-8.8-8.8s-.3-.2-.3-.3.2-.3.3-.3c5.2,0,9.5,4.3,9.5,9.5s-.2.3-.3.3h0Z"/>
  <path class="st0" d="M24.1,31v.4c.2,0,.3,0,.4-.2,0-.1,0-.3,0-.4l-.4.2ZM20.6,30.2l-.2.4h0s.2-.4.2-.4ZM17.8,28.6l-.2.4h0s.2-.4.2-.4ZM14.4,25.7l.3-.3h0s-.3.3-.3.3ZM12,23l-.4.3h0s.4-.3.4-.3ZM10.5,20.6l-.4.2h0s.4-.2.4-.2ZM9.6,18.6h-.4c0,.1,0,.1,0,.1h.4ZM9.2,17.1h-.4c0,0,0,0,0,0h.4ZM9.1,16h.4s0,0,0,0h-.4ZM9.1,15.6h.4c0,0,0,0,0,0h-.4ZM9.3,14.9l.4.2h0s-.4-.2-.4-.2ZM9.8,14.3l.3.3s0,0,0,0l-.3-.3ZM12.4,11.6l-.3-.3h0s.3.3.3.3ZM14,11.5l-.3.4h0s.3-.4.3-.4ZM14.4,11.9l-.4.2h0s.4-.2.4-.2ZM14.4,12l.4-.2s0,0,0,0l-.4.2ZM16.6,16.1l-.4.2h0s.4-.2.4-.2ZM16.7,17h-.4c0,0,0,0,0,0h.4ZM16.3,17.8l-.3-.3h0l.3.3ZM15.3,18.8l-.3-.3c0,0,0,.1-.1.2h.4ZM15.3,18.8l-.4-.2s0,0,0,0l.4.2ZM15.3,18.8h-.4c0,0,0,0,0,0h.4ZM15.6,19.6l.4-.2h0s-.4.2-.4.2ZM16.3,20.8l-.4.3h0s.4-.3.4-.3ZM17.7,22.3l.3-.3h0s-.3.3-.3.3ZM19.3,23.7l.3-.4h0s-.3.4-.3.4ZM20.4,24.5l-.2.4h0s.2-.4.2-.4ZM21.1,24.7v-.4c0,0,0,0,0,0v.4ZM21.3,24.8v.4s0,0,.1,0v-.4ZM21.3,24.8v-.4s0,0-.1,0v.4ZM21.3,24.8l.2.4s0,0,.1,0l-.3-.3ZM22.4,23.6l-.3-.3h0s.3.3.3.3ZM22.5,23.6l.2.4s0,0,0,0l-.3-.3ZM24.2,23.3l-.2.4s0,0,0,0v-.4ZM24.3,23.4l.2-.4h0s-.2.4-.2.4ZM28.2,25.7l.2-.4h0s-.2.4-.2.4ZM28.8,26.5h.4s0,0,0,0h-.4ZM28.8,26.6h.4c0,0,0-.1,0-.1h-.4ZM28.5,27.7l.3.3h0s-.3-.3-.3-.3ZM25.8,30.3l-.3-.3s0,0,0,0l.3.3ZM25.2,30.7l-.2-.4h0s.2.4.2.4ZM24.5,30.9v.4c0,0,0,0,0,0v-.4ZM24.4,31v.4s0,0,0,0v-.4ZM24.1,31v-.4c-.2,0-.3,0-.4.2,0,.1,0,.3,0,.4l.4-.2ZM9.8,15.6h.4c0-.2,0-.3-.2-.4-.1,0-.3,0-.4,0l.2.4ZM9.8,16h-.4s0,0,0,0h.4ZM9.9,17h.4c0,0,0,0,0,0h-.4ZM10.2,18.4h.4c0-.1,0-.1,0-.1h-.4ZM11.1,20.3l-.4.2h0s.4-.2.4-.2ZM14.8,25.2l.3-.3h0s-.3.3-.3.3ZM18.1,28l.2-.4h0s-.2.4-.2.4ZM20.9,29.5l.2-.4h0s-.2.4-.2.4ZM22.9,30.2v-.4c0,0,0,0,0,0v.4ZM24.3,30.3v-.4s0,0,0,0v.4ZM24.4,30.3v.4s0,0,0,0v-.4ZM24.9,30.1l-.2-.4h0s.2.4.2.4ZM25.3,29.9l-.3-.3s0,0,0,0l.3.3ZM28,27.2l.3.3h0s-.3-.3-.3-.3ZM28.2,26.7h.4c0,0,0,0,0,0h-.4ZM27.8,26.3l.2-.4h0s-.2.4-.2.4ZM24,24l.2-.4s0,0-.1,0v.4ZM23.9,24l-.2.4h0s.2-.4.2-.4ZM22.9,24.1l-.3-.3s0,0,0,0l.3.3ZM21.8,25.3l.3.3h0s-.3-.3-.3-.3ZM21.5,25.4v.4c.1,0,.1,0,.1,0v-.4ZM21.2,25.5v-.4c0,0,0,0,0,0v.4ZM21,25.4v.4c0,0,0,0,0,0v-.4ZM20.1,25.1l-.2.4h0s.2-.4.2-.4ZM18.9,24.3l-.3.4h0s.3-.4.3-.4ZM17.3,22.8l.3-.3h0s-.3.3-.3.3ZM15.8,21.2l-.4.3h0s.4-.3.4-.3ZM15,20l.4-.2h0s-.4.2-.4.2ZM14.6,18.9h.4c0,0,0,0,0,0h-.4ZM14.7,18.6h.4c0,.1,0,.1,0,.1h-.4ZM14.8,18.3l-.3-.3h0l.3.3ZM15.8,17.3l.3.3h0l-.3-.3ZM16.1,16.8h-.4c0,0,0,0,0,0h.4ZM16,16.4l-.4.2h0s.4-.2.4-.2ZM13.8,12.3l.4-.2s0,0,0,0l-.4.2ZM13.6,12l-.3.4h0s.3-.4.3-.4ZM12.9,12.1l.3.3h0s-.3-.3-.3-.3ZM10.2,14.8l.3.3s0,0,0,0l-.3-.3ZM10,15.2l-.4-.2h0s.4.2.4.2ZM9.8,15.6h-.4c0,0,0,.3.2.4.1,0,.3.1.5,0l-.2-.4ZM27,19.9c.2,0,.4-.2.4-.4s-.2-.4-.4-.4v.9ZM27,19c-.2,0-.4.2-.4.4s.2.4.4.4v-.9ZM30.1,19.5v.4c.2,0,.3-.1.4-.3,0-.2,0-.4-.1-.5l-.3.3ZM30.1,19.5v-.4c-.2,0-.3.1-.4.3,0,.2,0,.4.1.5l.3-.3ZM39.6,20h-.4c0,10.5-8.6,19.1-19.1,19.1v.9c11,0,20-9,20-20h-.4ZM20,39.6v-.4C9.5,39.1.9,30.5.9,20h-.9c0,11,9,20,20,20v-.4ZM.4,20h.4C.9,9.5,9.5.9,20,.9v-.9C9,0,0,9,0,20h.4ZM20,.4v.4c10.5,0,19.1,8.6,19.1,19.1h.9C40,9,31,0,20,0v.4ZM24.1,31v-.4c-.2,0-.6,0-1.2-.1v.4c0,0-.1.4-.1.4.6,0,1,.1,1.4.1v-.4ZM22.8,30.8v-.4c-.5,0-1.2-.3-2-.6l-.2.4-.2.4c.9.4,1.6.6,2.3.7v-.4ZM20.6,30.2l.2-.4c-.8-.3-1.8-.9-2.8-1.5l-.2.4-.2.4c1.1.7,2.1,1.2,2.9,1.6l.2-.4ZM17.8,28.6l.2-.4c-1-.7-2.2-1.6-3.3-2.8l-.3.3-.3.3c1.2,1.2,2.4,2.2,3.5,2.9l.2-.4ZM14.4,25.7l.3-.3c-.9-.9-1.7-1.8-2.3-2.6l-.4.3-.4.3c.6.9,1.5,1.8,2.4,2.8l.3-.3ZM12,23l.4-.3c-.6-.8-1.1-1.6-1.5-2.3l-.4.2-.4.2c.4.8.9,1.6,1.6,2.5l.4-.3ZM10.5,20.6l.4-.2c-.4-.7-.7-1.4-.8-1.9h-.4c0,.1-.4.3-.4.3.2.6.5,1.3.9,2.1l.4-.2ZM9.6,18.6h.4c-.2-.7-.3-1.2-.4-1.6h-.4c0,0-.4.1-.4.1,0,.5.2,1,.4,1.6h.4ZM9.2,17.1h.4c0-.5,0-.8,0-1h-.4s-.4,0-.4,0c0,.3,0,.7,0,1.2h.4ZM9.1,16h.4c0,0,0-.2,0-.2,0,0,0-.1,0-.1h-.9s0,0,0,0c0,0,0,0,0,0,0,0,0,.2,0,.3h.4ZM9.1,15.6h.4s0,0,0,0c0,0,0,0,0,0,0,0,0,0,0,0,0,0,0,0,0,0h-.4c0,0-.4-.1-.4-.1,0,0,0,.1,0,.1h.4ZM9.1,15.6h.4c0-.1,0-.3.2-.5l-.4-.2-.4-.2c-.1.3-.2.5-.3.8h.4ZM9.3,14.9l.4.2c0-.2.2-.3.3-.4l-.3-.3-.3-.3c-.2.2-.4.4-.5.7l.4.2ZM9.8,14.3l.3.3,2.7-2.7-.3-.3-.3-.3-2.7,2.7.3.3ZM12.4,11.6l.3.3c.2-.2.4-.3.6-.3v-.9c-.5,0-.9.2-1.2.5l.3.3ZM13.3,11.2v.4c.2,0,.3,0,.4.1l.3-.4.3-.4c-.3-.2-.6-.3-.9-.3v.4ZM14,11.5l-.3.4c.1,0,.2.2.3.3l.4-.2.4-.2c-.1-.2-.3-.4-.5-.6l-.3.4ZM14.4,11.9l-.4.2s0,0,0,0c0,0,0,0,0,0,0,0,0,0,0,0,0,0,0,0,0,0l.4-.2.4-.2s0,0,0,0c0,0,0,0,0,0,0,0,0,0,0,0,0,0,0,0,0,0l-.4.2ZM14.4,12l-.4.2,2.2,4.1.4-.2.4-.2-2.2-4.1-.4.2ZM16.6,16.1l-.4.2c.1.2.1.4,0,.6h.4c0,0,.4.2.4.2,0-.4,0-.9-.2-1.2l-.4.2ZM16.7,17h-.4c0,.1-.2.3-.3.5l.3.3.3.3c.3-.3.5-.6.6-1h-.4ZM16.3,17.8l-.3-.3-1,1,.3.3.3.3,1-1-.3-.3ZM15.3,18.8q-.4-.1-.4-.1h0s0,0,0,0c0,0,0,0,0,0,0,0,0,0,0,0,0,0,0,0,0,0,0,0,0,0,0,0,0,0,0,0,0,0,0,0,0,0,0,0l.4.2.4.2s0,0,0,0c0,0,0,0,0,0,0,0,0,0,0,0,0,0,0,0,0,0,0,0,0,0,0,0,0,0,0,0,0,0,0,0,0,0,0,0h0s0,0-.4-.1ZM15.3,18.8l-.4-.2s0,0,0,0c0,0,0,0,0,0,0,0,0,0,0,0h.4c0,.1.4.3.4.3,0,0,0,0,0,0,0,0,0,0,0,0,0,0,0,0,0,0,0,0,0,0,0,0l-.4-.2ZM15.3,18.8h-.4c0,.4.2.7.4,1l.4-.2.4-.2c-.1-.3-.2-.5-.3-.7h-.4ZM15.6,19.6l-.4.2c.2.3.4.7.8,1.2l.4-.3.4-.3c-.3-.4-.5-.8-.7-1.1l-.4.2ZM16.3,20.8l-.4.3c.3.5.8,1,1.4,1.6l.3-.3.3-.3c-.6-.6-1-1.1-1.3-1.5l-.4.3ZM17.7,22.3l-.3.3c.6.6,1.2,1.1,1.6,1.5l.3-.4.3-.4c-.4-.3-.9-.8-1.5-1.4l-.3.3ZM19.3,23.7l-.3.4c.5.3.9.6,1.2.8l.2-.4.2-.4c-.3-.1-.6-.4-1.1-.7l-.3.4ZM20.4,24.5l-.2.4c.4.2.6.3.8.3v-.4c0,0,.2-.4.2-.4,0,0-.2,0-.5-.2l-.2.4ZM21.1,24.7v.4c0,0,0,0,0,0v-.4c0,0,.2-.4.2-.4h-.2s0,.4,0,.4ZM21.3,24.8v.4h.1s0,0,0,0h0s0,0,0,0c0,0,0,0,0,0,0,0,0,0,0,0,0,0,0,0,0,0v-.4c-.1,0-.3-.4-.3-.4,0,0,0,0,0,0,0,0,0,0,0,0,0,0,0,0,0,0,0,0,0,0,0,0h0v.4ZM21.3,24.8v.4c0,0,.1,0,.2,0,0,0,0,0,0,0,0,0,0,0,0,0,0,0,0,0,0,0l-.2-.4-.2-.4s0,0,0,0c0,0,0,0,.2,0v.4ZM21.3,24.8l.3.3,1.1-1.2-.3-.3-.3-.3-1.1,1.2.3.3ZM22.4,23.6q.3.3.3.3h0s0,0,0,0t0,0s0,0,0,0c0,0,0,0,0,0,0,0,0,0,0,0,0,0,0,0,0,0,0,0,0,0,0,0,0,0,0,0,0,0,0,0,0,0,0,0l-.2-.4-.2-.4s0,0,0,0c0,0,0,0,0,0,0,0,0,0,0,0,0,0,0,0,0,0,0,0,0,0,0,0,0,0,0,0,0,0,0,0,0,0,0,0h0s0,0,.3.3ZM22.5,23.6l.3.3c.2-.2.5-.3.8-.3v-.9c-.5,0-1,.2-1.4.5l.3.3ZM23.5,23.2v.4c.2,0,.4,0,.5,0l.2-.4.2-.4c-.3-.1-.6-.2-.9-.2v.4ZM24.2,23.3v.4c-.1,0-.1,0-.1,0,0,0,0,0,0,0l.2-.4.2-.4c0,0-.1,0-.2,0v.4ZM24.3,23.4l-.2.4,3.9,2.3.2-.4.2-.4-3.9-2.3-.2.4ZM28.2,25.7l-.2.4c.3.2.4.4.5.6h.4c0,0,.4-.2.4-.2-.1-.5-.4-.9-.9-1.2l-.2.4ZM28.8,26.5h-.4c0,0,0,.1,0,.2h.4c0-.1.4-.3.4-.3,0,0,0,0,0,0,0,0,0,0,0,0,0,0,0,0,0,0h-.4ZM28.8,26.6h-.4c0,.3,0,.6-.3.8l.3.3.3.3c.4-.4.6-.9.5-1.5h-.4ZM28.5,27.7l-.3-.3-2.7,2.7.3.3.3.3,2.7-2.7-.3-.3ZM25.8,30.3l-.3-.3c0,.1-.2.2-.4.3l.2.4.2.4c.3-.1.5-.3.7-.5l-.3-.3ZM25.2,30.7l-.2-.4c-.2,0-.4.1-.5.2v.4c0,0,.1.4.1.4.3,0,.5-.1.8-.3l-.2-.4ZM24.5,30.9v-.4c0,0,0,0,0,0,0,0,0,0,0,0,0,0,0,0,0,0v.9c0,0,.1,0,.1,0v-.4ZM24.5,31v-.4s0,0,0,0c0,0,0,0,0,0,0,0,0,0,0,0,0,0,0,0,0,0v.4s0,.4,0,.4c0,0,0,0,0,0,0,0,0,0,0,0,0,0,0,0,0,0,0,0,0,0,0,0,0,0,0,0,0,0v-.4ZM24.4,31v-.4c-.1,0-.2,0-.3,0v.9c.1,0,.2,0,.3,0v-.4ZM24.1,31l-.4.2h0s.4-.2.4-.2l.4-.2h0s-.4.2-.4.2ZM9.8,15.6h-.4s0,.1,0,.4h.4s.4,0,.4,0c0-.2,0-.3,0-.4h-.4ZM9.8,16h-.4c0,.2,0,.6,0,1h.4c0,0,.4-.1.4-.1,0-.4,0-.7,0-.8h-.4ZM9.9,17h-.4c0,.5.2,1,.4,1.6h.4c0-.1.4-.3.4-.3-.2-.6-.3-1-.4-1.4h-.4ZM10.2,18.4h-.4c.2.7.5,1.4.9,2.1l.4-.2.4-.2c-.4-.7-.6-1.3-.8-1.8h-.4ZM11.1,20.3l-.4.2c.4.7.9,1.5,1.5,2.4l.4-.3.4-.3c-.6-.8-1.1-1.6-1.4-2.3l-.4.2ZM12.5,22.6l-.4.3c.6.9,1.4,1.8,2.4,2.7l.3-.3.3-.3c-.9-.9-1.7-1.8-2.3-2.6l-.4.3ZM14.8,25.2l-.3.3c1.2,1.2,2.3,2.2,3.4,2.8l.2-.4.2-.4c-1-.6-2.1-1.6-3.2-2.7l-.3.3ZM18.1,28l-.2.4c1,.7,2,1.2,2.8,1.6l.2-.4.2-.4c-.8-.3-1.7-.8-2.7-1.5l-.2.4ZM20.9,29.5l-.2.4c.8.3,1.5.6,2.1.7v-.4c0,0,.1-.4.1-.4-.5,0-1.1-.3-1.9-.6l-.2.4ZM22.9,30.2v.4c.5,0,.9.1,1.2.1v-.9c-.2,0-.6,0-1.1-.1v.4ZM24.1,30.3v.4c0,0,.2,0,.3,0v-.4c0,0-.1-.4-.1-.4,0,0,0,0-.2,0v.4ZM24.3,30.3v.4c0,0,0,0,0,0,0,0,0,0,0,0,0,0,0,0,0,0,0,0,0,0,0,0v-.9c0,0-.1,0-.2,0v.4ZM24.4,30.3v.4c.3,0,.5,0,.7-.2l-.2-.4-.2-.4c-.1,0-.2,0-.3.1v.4ZM24.9,30.1l.2.4c.2,0,.4-.2.5-.4l-.3-.3-.3-.3s-.1.1-.2.2l.2.4ZM25.3,29.9l.3.3,2.7-2.7-.3-.3-.3-.3-2.7,2.7.3.3ZM28,27.2l.3.3c.2-.2.4-.5.3-.9h-.4c0,0-.4.1-.4.1,0,0,0,0,0,0,0,0,0,0,0,0l.3.3ZM28.2,26.7h.4c0-.4-.3-.7-.5-.8l-.2.4-.2.4c.1,0,.1.1.1.1h.4ZM27.8,26.3l.2-.4-3.8-2.3-.2.4-.2.4,3.8,2.3.2-.4ZM24,24v-.4c.1,0,.1,0,.1,0,0,0,0,0,0,0l-.2.4-.2.4s.1,0,.2,0v-.4ZM23.9,24l.2-.4c-.1,0-.3-.1-.6-.1v.9c.1,0,.2,0,.1,0l.2-.4ZM23.5,23.9v-.4c-.3,0-.6.1-.9.3l.3.3.3.3c0,0,.2-.1.3-.1v-.4ZM22.9,24.1l-.3-.3-1.1,1.2.3.3.3.3,1.1-1.2-.3-.3ZM21.8,25.3l-.3-.3s0,0,0,0v.4c.1,0,.3.4.3.4.2,0,.3-.1.4-.3l-.3-.3ZM21.5,25.4v-.4c-.2,0-.2,0-.2,0,0,0,0,0,0,0,0,0,0,0,0,0v.4c0,0-.2.4-.2.4.2,0,.4,0,.5,0v-.4ZM21.2,25.5v-.4c0,0-.2,0-.2,0v.4c0,0-.2.4-.2.4h.3c0,0,0-.4,0-.4ZM21,25.4v-.4c0,0-.3-.1-.6-.3l-.2.4-.2.4c.4.2.7.3.9.4v-.4ZM20.1,25.1l.2-.4c-.3-.2-.7-.4-1.2-.7l-.3.4-.3.4c.5.4.9.6,1.3.8l.2-.4ZM18.9,24.3l.3-.4c-.5-.3-1-.8-1.6-1.4l-.3.3-.3.3c.6.6,1.2,1.2,1.7,1.5l.3-.4ZM17.3,22.8l.3-.3c-.6-.6-1.1-1.1-1.4-1.6l-.4.3-.4.3c.4.5.9,1.1,1.5,1.7l.3-.3ZM15.8,21.2l.4-.3c-.3-.5-.6-.9-.7-1.2l-.4.2-.4.2c.2.4.5.8.8,1.3l.4-.3ZM15,20l.4-.2c-.2-.4-.3-.7-.4-.9h-.4c0,0-.4.2-.4.2,0,.4.2.8.4,1.2l.4-.2ZM14.6,18.9h.4c0,0,0,0,0,0,0,0,0,0,0,0h-.9c0,0,0,.1,0,.2h.4ZM14.6,18.8h.4s0,0,0-.1h-.4c0-.1-.4-.3-.4-.3,0,.1,0,.3,0,.4h.4ZM14.7,18.6h.4c0,0,0,0,0,0l-.3-.3-.3-.3c-.1.1-.2.3-.3.4h.4ZM14.8,18.3l.3.3,1-1-.3-.3-.3-.3-1,1,.3.3ZM15.8,17.3l.3.3c.2-.2.3-.4.4-.7h-.4c0,0-.4-.2-.4-.2,0,.1,0,.2-.1.2l.3.3ZM16.1,16.8h.4c0-.2,0-.4-.1-.7l-.4.2-.4.2s0,0,0,.2h.4ZM16,16.4l.4-.2-2.2-4.1-.4.2-.4.2,2.2,4.1.4-.2ZM13.8,12.3l.4-.2c0-.1-.2-.3-.4-.4l-.3.4-.3.4s0,0,.1.2l.4-.2ZM13.6,12l.3-.4c-.2-.1-.3-.2-.5-.2v.9s0,0,0,0c0,0,0,0,0,0,0,0,0,0,0,0,0,0,0,0,0,0l.3-.4ZM13.3,11.9v-.4c-.3,0-.5.1-.7.3l.3.3.3.3s0,0,0,0c0,0,0,0,0,0v-.4ZM12.9,12.1l-.3-.3-2.7,2.7.3.3.3.3,2.7-2.7-.3-.3ZM10.2,14.8l-.3-.3c-.2.1-.3.3-.4.5l.4.2.4.2c0-.1.1-.2.2-.2l-.3-.3ZM10,15.2l-.4-.2c0,.2-.2.4-.2.6h.4c0,0,.4.1.4.1,0,0,0-.2.1-.3l-.4-.2ZM9.8,15.6l.2.4h0s-.2-.4-.2-.4l-.2-.4h0s.2.4.2.4ZM23.9,19.5v-.4c0,0,.1,0,.1.1h-.9c0,.4.4.8.8.8v-.4ZM23.6,19.1h.4c0-1.7-1.4-3.1-3.1-3.1v.9c1.2,0,2.2,1,2.2,2.2h.4ZM21,16.5v-.4c0,0,.1,0,.1.1h-.9c0,.4.4.8.8.8v-.4ZM20.6,16.2h.4c0,0,0,.1-.1.1v-.9c-.4,0-.8.4-.8.8h.4ZM21,15.8v.4c1.6,0,2.9,1.3,2.9,2.9h.9c0-2.1-1.7-3.8-3.8-3.8v.4ZM24.3,19.1h-.4c0,0,0-.1.1-.1v.9c.4,0,.8-.4.8-.8h-.4ZM27,19.5v-.4c0,0,.1,0,.1.1h-.9c0,.4.4.8.8.8v-.4ZM26.7,19.1h.4c0-3.4-2.8-6.2-6.2-6.2v.9c2.9,0,5.3,2.4,5.3,5.3h.4ZM21,13.4v-.4c0,0,.1,0,.1.1h-.9c0,.4.4.8.8.8v-.4ZM20.6,13.1h.4c0,0,0,.1-.1.1v-.9c-.4,0-.8.4-.8.8h.4ZM21,12.7v.4c3.3,0,6,2.7,6,6h.9c0-3.8-3.1-6.9-6.9-6.9v.4ZM27.4,19.1h-.4c0,0,0-.1.1-.1v.9c.4,0,.8-.4.8-.8h-.4ZM27,19.5v.4h0v-.9h0v.4ZM30.1,19.5v-.4c0,0,.1,0,.1.1h-.9c0,.4.4.8.8.8v-.4ZM29.8,19.1h.4c0-5.1-4.2-9.3-9.3-9.3v.9c4.6,0,8.4,3.7,8.4,8.4h.4ZM21,10.3v-.4c0,0,.1,0,.1.1h-.9c0,.4.4.8.8.8v-.4ZM20.6,10h.4c0,0,0,.1-.1.1v-.9c-.4,0-.8.4-.8.8h.4ZM21,9.7v.4c5,0,9,4.1,9,9h.9c0-5.5-4.5-9.9-9.9-9.9v.4ZM30.4,19.1h-.4c0,0,0-.1.1-.1v.9c.4,0,.8-.4.8-.8h-.4ZM30.1,19.5l-.3.3h0s.3-.3.3-.3l.3-.3h0s-.3.3-.3.3Z"/>
</svg>